<svg width="20" height="24" viewBox="0 0 20 24" fill="none" xmlns="http://www.w3.org/2000/svg">
<path fill-rule="evenodd" clip-rule="evenodd" d="M8.375 1.97915C8.375 1.07999 9.10083 0.354153 10 0.354153C10.8992 0.354153 11.625 1.07999 11.625 1.97915V3.24665C15.0267 3.98332 17.5833 7.01665 17.5833 10.6458V17.1458L19.75 19.3125V20.3958H0.25V19.3125L2.41667 17.1458V10.6458C2.41667 7.01665 4.97333 3.98332 8.375 3.24665V1.97915ZM10 5.22918C12.99 5.22918 15.4167 7.65584 15.4167 10.6458V18.2292H4.58334V10.6458C4.58334 7.65584 7.01 5.22918 10 5.22918ZM7.84417 21.4901C7.84417 22.6817 8.80833 23.6459 10 23.6459C11.1917 23.6459 12.1558 22.6817 12.1558 21.4901H7.84417ZM8.91666 7.39588H11.0833V11.7292H8.91666V7.39588ZM11.0833 13.8959H8.91666V16.0625H11.0833V13.8959Z" fill="#F86D41"/>
</svg>
