<svg width="35" height="34" viewBox="0 0 35 34" fill="none" xmlns="http://www.w3.org/2000/svg">
<path fill-rule="evenodd" clip-rule="evenodd" d="M20.7929 10.9792C20.7929 14.11 18.2268 16.6458 15.0586 16.6458C11.8904 16.6458 9.32425 14.11 9.32425 10.9792C9.32425 7.84833 11.8904 5.3125 15.0586 5.3125C18.2268 5.3125 20.7929 7.84833 20.7929 10.9792ZM17.9257 10.9792C17.9257 9.42083 16.6355 8.14583 15.0586 8.14583C13.4816 8.14583 12.1914 9.42083 12.1914 10.9792C12.1914 12.5375 13.4816 13.8125 15.0586 13.8125C16.6355 13.8125 17.9257 12.5375 17.9257 10.9792ZM6.45708 25.1458C6.7438 24.2533 10.1414 22.7658 13.5677 22.3975L16.4922 19.5642C15.9331 19.5075 15.5173 19.4792 15.0586 19.4792C11.2309 19.4792 3.58992 21.3775 3.58992 25.1458V27.9792H16.4922L13.625 25.1458H6.45708ZM21.4667 24.6783L28.821 17.3542L30.828 19.3517L21.4667 28.6875L16.4922 23.7292L18.4992 21.7317L21.4667 24.6783Z" fill="#F8A141"/>
</svg>
