<svg width="33" height="32" viewBox="0 0 33 32" fill="none" xmlns="http://www.w3.org/2000/svg">
<path fill-rule="evenodd" clip-rule="evenodd" d="M28.3403 1.33334H9.45076C7.96658 1.33334 6.75225 2.53334 6.75225 4.00001V22.6667C6.75225 24.1333 7.96658 25.3333 9.45076 25.3333H28.3403C29.8245 25.3333 31.0388 24.1333 31.0388 22.6667V4.00001C31.0388 2.53334 29.8245 1.33334 28.3403 1.33334ZM4.05374 6.66668H1.35524V28C1.35524 29.4667 2.56956 30.6667 4.05374 30.6667H25.6418V28H4.05374V6.66668ZM18.8955 16V10.6667C18.8955 9.18668 17.6812 8.00001 16.197 8.00001H14.8478C13.3636 8.00001 12.1493 9.18668 12.1493 10.6667V12C12.1493 13.48 13.3636 14.6667 14.8478 14.6667H16.197V16H12.1493V18.6667H16.197C17.6812 18.6667 18.8955 17.48 18.8955 16ZM14.8478 10.6667V12H16.197V10.6667H14.8478ZM25.6418 12H28.3403V4.00001H9.45076V22.6667H28.3403V14.6667H25.6418V17.3333H22.9433V14.6667H20.2448V12H22.9433V9.33334H25.6418V12Z" fill="#F8A141"/>
</svg>
