<svg width="33" height="33" viewBox="0 0 33 33" fill="none" xmlns="http://www.w3.org/2000/svg">
<path fill-rule="evenodd" clip-rule="evenodd" d="M16.8802 0.0616455C12.442 0.0616455 8.84725 3.65638 8.84725 8.09457C8.84725 12.5328 12.442 16.1275 16.8802 16.1275C21.3184 16.1275 24.9131 12.5328 24.9131 8.09457C24.9131 3.65638 21.3184 0.0616455 16.8802 0.0616455ZM20.8968 8.0946C20.8968 5.88554 19.0894 4.07814 16.8803 4.07814C14.6712 4.07814 12.8638 5.88554 12.8638 8.0946C12.8638 10.3037 14.6712 12.1111 16.8803 12.1111C19.0894 12.1111 20.8968 10.3037 20.8968 8.0946ZM28.9298 28.1769C28.5282 26.751 22.3026 24.1604 16.8804 24.1604C11.4783 24.1604 5.29293 26.7309 4.83104 28.1769H28.9298ZM0.814453 28.1768C0.814453 22.8349 11.5183 20.1439 16.8803 20.1439C22.2423 20.1439 32.9461 22.8349 32.9461 28.1768V32.1933H0.814453V28.1768Z" fill="#F8A141"/>
</svg>
