<svg width="37" height="36" viewBox="0 0 37 36" fill="none" xmlns="http://www.w3.org/2000/svg">
<path fill-rule="evenodd" clip-rule="evenodd" d="M25.1333 4.875C25.1333 6.525 23.7672 7.875 22.0975 7.875C20.4278 7.875 19.0617 6.525 19.0617 4.875C19.0617 3.225 20.4278 1.875 22.0975 1.875C23.7672 1.875 25.1333 3.225 25.1333 4.875ZM18.1509 22.125L16.633 28.725L6.00763 26.625L6.61479 23.625L14.0526 25.125L16.4812 12.975L13.749 14.025V19.125H10.7132V12.075L18.6063 8.775C18.834 8.775 19.0237 8.7375 19.2134 8.7C19.4032 8.6625 19.5929 8.625 19.8206 8.625C20.8832 8.625 21.7939 9.225 22.4011 10.125L23.919 12.525C25.1333 14.625 27.562 16.125 30.446 16.125V19.125C27.1066 19.125 24.0708 17.625 22.0975 15.375L21.1867 19.875L24.3743 22.875V34.125H21.3385V25.125L18.1509 22.125Z" fill="#F8A141"/>
</svg>
