<svg width="40" height="39" viewBox="0 0 40 39" fill="none" xmlns="http://www.w3.org/2000/svg">
<path fill-rule="evenodd" clip-rule="evenodd" d="M14.7996 36.5218H24.666V28.7056C27.6095 27.0156 29.5993 23.8793 29.5993 20.2718C29.5993 14.8931 25.1758 10.5218 19.7328 10.5218C14.2899 10.5218 9.86642 14.8931 9.86642 20.2718C9.86642 23.8793 11.8561 27.0156 14.7996 28.7056V36.5218ZM21.3773 33.2719V26.8369L23.0217 25.8944C25.0608 24.7244 26.3105 22.5794 26.3105 20.2719C26.3105 16.6806 23.367 13.7719 19.7329 13.7719C16.0988 13.7719 13.1553 16.6806 13.1553 20.2719C13.1553 22.5794 14.4215 24.7244 16.4441 25.8944L18.0885 26.8369V33.2719H21.3773ZM6.57754 21.9781H1.64433V18.7281H6.57754V21.9781ZM5.83768 8.83184L8.15629 6.54059L11.0998 9.46559L8.78117 11.7568L5.83768 8.83184ZM18.0885 7.35306H21.3773V2.47805H18.0885V7.35306ZM32.8881 21.9781H37.8213V18.7281H32.8881V21.9781ZM31.293 6.52428L28.3496 9.44928L30.6517 11.7243L33.6116 8.81553L31.293 6.52428Z" fill="#F8A141"/>
</svg>