<svg width="48" height="31" viewBox="0 0 48 31" fill="none" xmlns="http://www.w3.org/2000/svg">
<path fill-rule="evenodd" clip-rule="evenodd" d="M16.7802 15.0137C21.4067 15.0137 25.1702 11.6463 25.1702 7.50684C25.1702 3.36736 21.4067 0 16.7802 0C12.1537 0 8.3902 3.36736 8.3902 7.50684C8.3902 11.6463 12.1537 15.0137 16.7802 15.0137ZM16.7798 4.28957C18.7694 4.28957 20.3755 5.72659 20.3755 7.50679C20.3755 9.28698 18.7694 10.724 16.7798 10.724C14.7902 10.724 13.1841 9.28698 13.1841 7.50679C13.1841 5.72659 14.7902 4.28957 16.7798 4.28957ZM6.64008 25.7377H16.8999C16.8279 26.0809 16.78 26.4455 16.78 26.8101V30.0274H0V26.8101C0 21.8127 11.1707 19.3033 16.78 19.3033C18.1224 19.3033 19.7764 19.4534 21.5263 19.7323C19.8244 20.7618 18.4101 22.0487 17.595 23.6144C17.4632 23.6144 17.3253 23.609 17.1875 23.6036C17.0497 23.5983 16.9118 23.5929 16.78 23.5929C13.1124 23.5929 9.01326 24.6653 6.64008 25.7377ZM34.7586 20.3757C30.3478 20.3757 21.5743 22.5419 21.5743 26.8101V30.0273H47.9429V26.8101C47.9429 22.5419 39.1693 20.3757 34.7586 20.3757ZM40.7514 11.7965C40.7514 13.8126 39.4809 15.5499 37.6591 16.4722C36.7962 16.9011 35.8133 17.1585 34.7586 17.1585C33.7038 17.1585 32.721 16.9011 31.858 16.4722C30.0362 15.5499 28.7657 13.8126 28.7657 11.7965C28.7657 8.83664 31.4505 6.43445 34.7586 6.43445C38.0666 6.43445 40.7514 8.83664 40.7514 11.7965Z" fill="#F8A141"/>
</svg>
