<svg width="30" height="32" viewBox="0 0 30 32" fill="none" xmlns="http://www.w3.org/2000/svg">
<path fill-rule="evenodd" clip-rule="evenodd" d="M10.7515 0.416626H19.2515V4.66663H23.5015C25.0598 4.66663 26.3348 5.94163 26.3348 7.49996V14.045L28.1482 14.64C28.5165 14.7533 28.8282 15.0083 28.9982 15.3483C29.1682 15.6883 29.1965 16.085 29.0832 16.4533L26.4057 25.9166H26.3348C24.0682 25.9166 22.0565 24.67 20.6682 23.0833C19.2798 24.67 17.2682 25.9166 15.0015 25.9166C12.7348 25.9166 10.7232 24.67 9.33484 23.0833C7.94651 24.67 5.93484 25.9166 3.66818 25.9166H3.59734L0.905677 16.4533C0.778177 16.085 0.820677 15.6883 0.990677 15.3483C1.16068 15.0083 1.47234 14.7533 1.84068 14.64L3.66818 14.045V7.49996C3.66818 5.94163 4.94318 4.66663 6.50151 4.66663H10.7515V0.416626ZM16.4182 3.24994V4.66661H13.5849V3.24994H16.4182ZM15.0015 13.3224L22.6232 15.8299L26.009 16.9349L24.4223 22.5591C23.6573 22.1341 23.0907 21.5533 22.8073 21.2274L20.6682 18.7766L18.529 21.2133C18.0473 21.7799 16.7157 23.0833 15.0015 23.0833C13.2873 23.0833 11.9557 21.7799 11.474 21.2133L9.33485 18.7766L7.19568 21.2133C6.91235 21.5391 6.34568 22.1058 5.58068 22.5308L3.97985 16.9208L7.37985 15.8016L15.0015 13.3224ZM6.50156 13.1241V7.49994H23.5016V13.1241L15.0016 10.3333L6.50156 13.1241ZM15.0016 28.6933C16.9707 28.6933 18.9399 28.0841 20.6682 26.8799C22.3966 28.0841 24.3657 28.7499 26.3349 28.7499H29.1682V31.5833H26.3349C24.3799 31.5833 22.4532 31.1016 20.6682 30.1808C18.8832 31.1016 16.9424 31.5549 15.0016 31.5549C13.0607 31.5549 11.1199 31.0874 9.33489 30.1808C7.54989 31.0874 5.62322 31.5833 3.66822 31.5833H0.83489V28.7499H3.66822C5.63739 28.7499 7.60656 28.0841 9.33489 26.8799C11.0632 28.0841 13.0324 28.6933 15.0016 28.6933Z" fill="#F8A141"/>
</svg>
