<svg width="24" height="32" viewBox="0 0 24 32" fill="none" xmlns="http://www.w3.org/2000/svg">
<path fill-rule="evenodd" clip-rule="evenodd" d="M14.25 0.00256348C14.25 0.00256348 15.36 3.97756 15.36 7.20256C15.36 10.2926 13.335 12.7976 10.245 12.7976C7.14 12.7976 4.8 10.2926 4.8 7.20256L4.845 6.66256C1.815 10.2626 0 14.9276 0 19.9976C0 26.6276 5.37 31.9976 12 31.9976C18.63 31.9976 24 26.6276 24 19.9976C24 11.9126 20.115 4.69756 14.25 0.00256348ZM11.3551 18.7375C9.31507 19.1575 8.10007 20.4775 8.10007 22.3525C8.10007 24.3625 9.76507 25.9825 11.8351 25.9825C14.9101 25.9825 17.4001 23.4925 17.4001 20.4175C17.4001 18.8125 17.1751 17.2375 16.7101 15.7375C15.5251 17.3425 13.4101 18.3175 11.3551 18.7375ZM3 19.9975C3 24.9625 7.035 28.9975 12 28.9975C16.965 28.9975 21 24.9625 21 19.9975C21 16.1575 20.01 12.4525 18.165 9.1525C17.37 13.0525 14.235 15.7975 10.245 15.7975C7.905 15.7975 5.805 14.8675 4.29 13.3525C3.45 15.4375 3 17.7025 3 19.9975Z" fill="#F8A141"/>
</svg>
