<svg width="27" height="31" viewBox="0 0 27 31" fill="none" xmlns="http://www.w3.org/2000/svg">
<path fill-rule="evenodd" clip-rule="evenodd" d="M0.5 6.5625C0.5 0.875 7 0.0625 13.5 0.0625C20 0.0625 26.5 0.875 26.5 6.5625V22C26.5 25.1363 23.9487 27.6875 20.8125 27.6875L23.25 30.125V30.9375H20L16.75 27.6875H10.25L7 30.9375H3.75V30.125L6.1875 27.6875C3.05125 27.6875 0.5 25.1363 0.5 22V6.5625ZM7.81247 17.9375C6.46627 17.9375 5.37497 19.0288 5.37497 20.375C5.37497 21.7212 6.46627 22.8125 7.81247 22.8125C9.15866 22.8125 10.25 21.7212 10.25 20.375C10.25 19.0288 9.15866 17.9375 7.81247 17.9375ZM19.1875 17.9375C17.8413 17.9375 16.75 19.0288 16.75 20.375C16.75 21.7212 17.8413 22.8125 19.1875 22.8125C20.5337 22.8125 21.625 21.7212 21.625 20.375C21.625 19.0288 20.5337 17.9375 19.1875 17.9375ZM13.5 3.3125C19.2038 3.3125 21.56 4.0925 22.5513 4.9375H4.44879C5.44004 4.0925 7.79629 3.3125 13.5 3.3125ZM11.875 8.1875H3.75V13.0625H11.875V8.1875ZM23.25 22C23.25 23.3487 22.1612 24.4375 20.8125 24.4375H6.1875C4.83875 24.4375 3.75 23.3487 3.75 22V16.3125H23.25V22ZM15.125 13.0625H23.25V8.1875H15.125V13.0625Z" fill="#F8A141"/>
</svg>
