<svg width="35" height="34" viewBox="0 0 35 34" fill="none" xmlns="http://www.w3.org/2000/svg">
<path fill-rule="evenodd" clip-rule="evenodd" d="M20.3323 13.8333L34.3611 27.1948C34.9791 27.7834 34.9791 28.7104 34.3611 29.2696L30.8076 32.6541C30.205 33.228 29.2316 33.228 28.6291 32.6541L14.554 19.2485C10.9695 20.5287 6.78255 19.8077 3.90882 17.0706C0.355277 13.7008 0.0308239 8.41806 2.90455 4.68038L8.82197 10.3163L11.0159 8.24148L5.08303 2.57609C9.02282 -0.160952 14.554 0.148069 18.1075 3.53258C21.0276 6.32849 21.7692 10.3899 20.3323 13.8333ZM15.1101 15.6284L29.726 29.5491L31.0856 28.2394L16.4852 14.3335C17.1959 13.4653 17.6594 12.494 17.8448 11.4493C18.231 9.40384 17.5976 7.21126 15.929 5.62201C14.4612 4.23877 12.5299 3.5913 10.6141 3.69431L15.3882 8.24133L8.83734 14.4806L4.06324 9.93359C3.95509 11.7583 4.6349 13.6124 6.10266 14.9956C7.70948 16.526 9.91885 17.1294 12.0201 16.8351C13.117 16.6879 14.1676 16.2906 15.1101 15.6284Z" fill="#5578BB"/>
</svg>
